<mxfile host="app.diagrams.net" modified="2021-07-31T16:53:46.632Z" agent="5.0 (Windows NT 10.0; Win64; x64) AppleWebKit/537.36 (KHTML, like Gecko) Chrome/89.0.4389.114 Safari/537.36" etag="uDMAe0MrmNfZdbtmaQ5E" version="14.9.3" type="github">
  <diagram id="8TH7uReoswffPimqbZuZ" name="Page-1">
    <mxGraphModel dx="1038" dy="492" grid="0" gridSize="10" guides="1" tooltips="1" connect="1" arrows="1" fold="1" page="1" pageScale="1" pageWidth="827" pageHeight="1169" math="0" shadow="0">
      <root>
        <mxCell id="0" />
        <mxCell id="1" parent="0" />
        <mxCell id="pIVM3B8b8TiOGifCgAn9-1" value="&lt;font style=&quot;vertical-align: inherit&quot;&gt;&lt;font style=&quot;vertical-align: inherit&quot;&gt;&lt;font style=&quot;vertical-align: inherit ; font-size: 15px&quot;&gt;&lt;font style=&quot;vertical-align: inherit ; font-size: 15px&quot;&gt;127.0.0.1:6379&lt;br&gt;master&lt;br&gt;&lt;/font&gt;&lt;/font&gt;&lt;/font&gt;&lt;/font&gt;" style="rounded=1;whiteSpace=wrap;html=1;" parent="1" vertex="1">
          <mxGeometry x="456" y="149.75" width="102" height="49" as="geometry" />
        </mxCell>
        <mxCell id="4EUAKiG6uaYQuzAemKZB-11" style="edgeStyle=orthogonalEdgeStyle;rounded=0;orthogonalLoop=1;jettySize=auto;html=1;exitX=0.5;exitY=0;exitDx=0;exitDy=0;strokeWidth=1;" edge="1" parent="1" source="pIVM3B8b8TiOGifCgAn9-2">
          <mxGeometry relative="1" as="geometry">
            <mxPoint x="506.99993896484375" y="202.20001220703125" as="targetPoint" />
          </mxGeometry>
        </mxCell>
        <mxCell id="pIVM3B8b8TiOGifCgAn9-2" value="&lt;font style=&quot;vertical-align: inherit&quot;&gt;&lt;font style=&quot;vertical-align: inherit&quot;&gt;&lt;font style=&quot;vertical-align: inherit&quot;&gt;&lt;font style=&quot;vertical-align: inherit&quot;&gt;&lt;font style=&quot;vertical-align: inherit&quot;&gt;127.0.0.4:6379&lt;/font&gt;&lt;/font&gt;&lt;/font&gt;&lt;/font&gt;&lt;/font&gt;&lt;br&gt;slave" style="rounded=1;whiteSpace=wrap;html=1;" parent="1" vertex="1">
          <mxGeometry x="593" y="314" width="102" height="49" as="geometry" />
        </mxCell>
        <mxCell id="4EUAKiG6uaYQuzAemKZB-9" style="edgeStyle=orthogonalEdgeStyle;rounded=0;orthogonalLoop=1;jettySize=auto;html=1;exitX=0.5;exitY=0;exitDx=0;exitDy=0;entryX=0.5;entryY=1;entryDx=0;entryDy=0;strokeWidth=1;" edge="1" parent="1" source="pIVM3B8b8TiOGifCgAn9-3" target="pIVM3B8b8TiOGifCgAn9-1">
          <mxGeometry relative="1" as="geometry" />
        </mxCell>
        <mxCell id="pIVM3B8b8TiOGifCgAn9-3" value="&lt;font style=&quot;vertical-align: inherit&quot;&gt;&lt;font style=&quot;vertical-align: inherit&quot;&gt;&lt;font style=&quot;vertical-align: inherit&quot;&gt;&lt;font style=&quot;vertical-align: inherit&quot;&gt;&lt;font style=&quot;vertical-align: inherit&quot;&gt;127.0.0.3:6379&lt;/font&gt;&lt;/font&gt;&lt;/font&gt;&lt;/font&gt;&lt;/font&gt;&lt;br&gt;slave" style="rounded=1;whiteSpace=wrap;html=1;" parent="1" vertex="1">
          <mxGeometry x="456" y="314" width="102" height="49" as="geometry" />
        </mxCell>
        <mxCell id="4EUAKiG6uaYQuzAemKZB-10" style="edgeStyle=orthogonalEdgeStyle;rounded=0;orthogonalLoop=1;jettySize=auto;html=1;exitX=0.5;exitY=0;exitDx=0;exitDy=0;strokeWidth=1;" edge="1" parent="1" source="pIVM3B8b8TiOGifCgAn9-4">
          <mxGeometry relative="1" as="geometry">
            <mxPoint x="506.99993896484375" y="201.4000244140625" as="targetPoint" />
          </mxGeometry>
        </mxCell>
        <mxCell id="pIVM3B8b8TiOGifCgAn9-4" value="&lt;font style=&quot;vertical-align: inherit&quot;&gt;&lt;font style=&quot;vertical-align: inherit&quot;&gt;&lt;font style=&quot;vertical-align: inherit&quot;&gt;&lt;font style=&quot;vertical-align: inherit&quot;&gt;&lt;font style=&quot;vertical-align: inherit&quot;&gt;&lt;font style=&quot;vertical-align: inherit&quot;&gt;&lt;font style=&quot;vertical-align: inherit&quot;&gt;&lt;font style=&quot;vertical-align: inherit&quot;&gt;127.0.0.2:6379&lt;/font&gt;&lt;/font&gt;&lt;/font&gt;&lt;/font&gt;&lt;/font&gt;&lt;/font&gt;&lt;br&gt;salve&lt;br&gt;&lt;/font&gt;&lt;/font&gt;" style="rounded=1;whiteSpace=wrap;html=1;" parent="1" vertex="1">
          <mxGeometry x="319" y="314" width="102" height="49" as="geometry" />
        </mxCell>
        <mxCell id="4EUAKiG6uaYQuzAemKZB-13" style="edgeStyle=orthogonalEdgeStyle;rounded=0;orthogonalLoop=1;jettySize=auto;html=1;exitX=1;exitY=0.5;exitDx=0;exitDy=0;entryX=0;entryY=0.5;entryDx=0;entryDy=0;strokeWidth=1;" edge="1" parent="1" source="pIVM3B8b8TiOGifCgAn9-9" target="pIVM3B8b8TiOGifCgAn9-1">
          <mxGeometry relative="1" as="geometry" />
        </mxCell>
        <mxCell id="pIVM3B8b8TiOGifCgAn9-9" value="&lt;font style=&quot;vertical-align: inherit&quot;&gt;&lt;font style=&quot;vertical-align: inherit&quot;&gt;Client&lt;/font&gt;&lt;/font&gt;" style="rounded=0;whiteSpace=wrap;html=1;" parent="1" vertex="1">
          <mxGeometry x="89" y="72" width="84" height="46.5" as="geometry" />
        </mxCell>
        <mxCell id="pIVM3B8b8TiOGifCgAn9-13" value="&lt;font style=&quot;vertical-align: inherit&quot;&gt;&lt;font style=&quot;vertical-align: inherit&quot;&gt;&lt;font style=&quot;vertical-align: inherit&quot;&gt;&lt;font style=&quot;vertical-align: inherit&quot;&gt;&lt;font style=&quot;vertical-align: inherit&quot;&gt;&lt;font style=&quot;vertical-align: inherit&quot;&gt;&lt;font style=&quot;vertical-align: inherit&quot;&gt;&lt;font style=&quot;vertical-align: inherit ; font-size: 15px&quot;&gt;set key value nx ex empireTime&lt;/font&gt;&lt;/font&gt;&lt;/font&gt;&lt;/font&gt;&lt;/font&gt;&lt;/font&gt;&lt;/font&gt;&lt;/font&gt;" style="text;html=1;strokeColor=none;fillColor=none;align=center;verticalAlign=middle;whiteSpace=wrap;rounded=0;" parent="1" vertex="1">
          <mxGeometry x="341" y="33" width="278" height="35" as="geometry" />
        </mxCell>
        <mxCell id="4EUAKiG6uaYQuzAemKZB-1" value="&lt;font style=&quot;vertical-align: inherit&quot;&gt;&lt;font style=&quot;vertical-align: inherit&quot;&gt;&lt;font style=&quot;vertical-align: inherit&quot;&gt;&lt;font style=&quot;vertical-align: inherit&quot;&gt;&lt;font style=&quot;vertical-align: inherit&quot;&gt;&lt;font style=&quot;vertical-align: inherit&quot;&gt;&lt;font style=&quot;vertical-align: inherit&quot;&gt;&lt;font style=&quot;vertical-align: inherit ; font-size: 15px&quot;&gt;set product 100 nx ex 10&lt;/font&gt;&lt;/font&gt;&lt;/font&gt;&lt;/font&gt;&lt;/font&gt;&lt;/font&gt;&lt;/font&gt;&lt;/font&gt;" style="text;html=1;strokeColor=none;fillColor=none;align=center;verticalAlign=middle;whiteSpace=wrap;rounded=0;" vertex="1" parent="1">
          <mxGeometry x="10" y="29" width="278" height="35" as="geometry" />
        </mxCell>
        <mxCell id="4EUAKiG6uaYQuzAemKZB-14" style="edgeStyle=orthogonalEdgeStyle;rounded=0;orthogonalLoop=1;jettySize=auto;html=1;exitX=1;exitY=0.5;exitDx=0;exitDy=0;entryX=0;entryY=0.5;entryDx=0;entryDy=0;strokeWidth=1;" edge="1" parent="1" source="4EUAKiG6uaYQuzAemKZB-2" target="pIVM3B8b8TiOGifCgAn9-1">
          <mxGeometry relative="1" as="geometry" />
        </mxCell>
        <mxCell id="4EUAKiG6uaYQuzAemKZB-2" value="&lt;font style=&quot;vertical-align: inherit&quot;&gt;&lt;font style=&quot;vertical-align: inherit&quot;&gt;Client&lt;/font&gt;&lt;/font&gt;" style="rounded=0;whiteSpace=wrap;html=1;" vertex="1" parent="1">
          <mxGeometry x="89" y="226" width="84" height="46.5" as="geometry" />
        </mxCell>
        <mxCell id="4EUAKiG6uaYQuzAemKZB-12" style="edgeStyle=orthogonalEdgeStyle;rounded=0;orthogonalLoop=1;jettySize=auto;html=1;exitX=1;exitY=0.5;exitDx=0;exitDy=0;entryX=0;entryY=0.5;entryDx=0;entryDy=0;strokeWidth=1;" edge="1" parent="1" source="4EUAKiG6uaYQuzAemKZB-3" target="pIVM3B8b8TiOGifCgAn9-1">
          <mxGeometry relative="1" as="geometry" />
        </mxCell>
        <mxCell id="4EUAKiG6uaYQuzAemKZB-3" value="&lt;font style=&quot;vertical-align: inherit&quot;&gt;&lt;font style=&quot;vertical-align: inherit&quot;&gt;Client&lt;/font&gt;&lt;/font&gt;" style="rounded=0;whiteSpace=wrap;html=1;" vertex="1" parent="1">
          <mxGeometry x="89" y="151" width="84" height="46.5" as="geometry" />
        </mxCell>
        <mxCell id="4EUAKiG6uaYQuzAemKZB-15" value="&lt;div&gt;&lt;span style=&quot;font-size: 15px&quot;&gt;假设此时&lt;/span&gt;&lt;font style=&quot;font-size: 15px&quot;&gt;有多个客户端请求redis.去获取分布式锁。但是请求master成功之后，在master复制分布式锁到slave的时候宕机。此时剩下的slave选举新的master之后。其他的客户端依然可以获取到分布式锁，此时就会存在多个客户端获取到分布式锁。&lt;/font&gt;&lt;br&gt;&lt;/div&gt;" style="text;html=1;strokeColor=#6c8ebf;fillColor=#dae8fc;align=left;verticalAlign=middle;whiteSpace=wrap;rounded=0;dashed=1;strokeWidth=2;" vertex="1" parent="1">
          <mxGeometry x="83" y="414" width="348" height="96" as="geometry" />
        </mxCell>
        <mxCell id="4EUAKiG6uaYQuzAemKZB-17" style="edgeStyle=orthogonalEdgeStyle;rounded=0;orthogonalLoop=1;jettySize=auto;html=1;exitX=0;exitY=0.5;exitDx=0;exitDy=0;entryX=0.997;entryY=0.61;entryDx=0;entryDy=0;entryPerimeter=0;strokeWidth=1;" edge="1" parent="1" source="4EUAKiG6uaYQuzAemKZB-16" target="4EUAKiG6uaYQuzAemKZB-15">
          <mxGeometry relative="1" as="geometry" />
        </mxCell>
        <mxCell id="4EUAKiG6uaYQuzAemKZB-16" value="&lt;b&gt;&lt;font style=&quot;font-size: 20px&quot;&gt;单点故障&lt;/font&gt;&lt;/b&gt;" style="rounded=1;whiteSpace=wrap;html=1;strokeWidth=2;dashed=1;strokeColor=#FFFF66;" vertex="1" parent="1">
          <mxGeometry x="578" y="443" width="120" height="60" as="geometry" />
        </mxCell>
        <mxCell id="4EUAKiG6uaYQuzAemKZB-18" value="&lt;div&gt;&lt;span style=&quot;font-size: 15px&quot;&gt;假设执行业务的时间超过了key的超时时间。此时其它的客户端依然可以获取到锁&lt;/span&gt;&lt;/div&gt;" style="text;html=1;strokeColor=#6c8ebf;fillColor=#dae8fc;align=left;verticalAlign=middle;whiteSpace=wrap;rounded=0;dashed=1;strokeWidth=2;" vertex="1" parent="1">
          <mxGeometry x="83" y="550" width="348" height="54" as="geometry" />
        </mxCell>
        <mxCell id="4EUAKiG6uaYQuzAemKZB-20" style="edgeStyle=orthogonalEdgeStyle;rounded=0;orthogonalLoop=1;jettySize=auto;html=1;exitX=0;exitY=0.5;exitDx=0;exitDy=0;strokeWidth=1;" edge="1" parent="1" source="4EUAKiG6uaYQuzAemKZB-19">
          <mxGeometry relative="1" as="geometry">
            <mxPoint x="434" y="582" as="targetPoint" />
          </mxGeometry>
        </mxCell>
        <mxCell id="4EUAKiG6uaYQuzAemKZB-19" value="&lt;span style=&quot;color: rgb(18 , 18 , 18) ; font-family: , &amp;#34;blinkmacsystemfont&amp;#34; , &amp;#34;helvetica neue&amp;#34; , &amp;#34;pingfang sc&amp;#34; , &amp;#34;microsoft yahei&amp;#34; , &amp;#34;source han sans sc&amp;#34; , &amp;#34;noto sans cjk sc&amp;#34; , &amp;#34;wenquanyi micro hei&amp;#34; , sans-serif ; font-size: 15px ; text-align: left ; background-color: rgb(255 , 255 , 255) ; font-weight: 600&quot;&gt;执行时间超过了锁的过期时间&lt;/span&gt;" style="rounded=1;whiteSpace=wrap;html=1;strokeWidth=2;dashed=1;strokeColor=#FFFF66;" vertex="1" parent="1">
          <mxGeometry x="575" y="552" width="120" height="60" as="geometry" />
        </mxCell>
        <mxCell id="4EUAKiG6uaYQuzAemKZB-21" value="&lt;font style=&quot;font-size: 15px&quot; color=&quot;#ff4912&quot;&gt;&lt;b&gt;RedLock算法&lt;/b&gt;&lt;/font&gt;" style="text;html=1;strokeColor=none;fillColor=none;align=center;verticalAlign=middle;whiteSpace=wrap;rounded=0;" vertex="1" parent="1">
          <mxGeometry x="83" y="674" width="127" height="24" as="geometry" />
        </mxCell>
        <mxCell id="4EUAKiG6uaYQuzAemKZB-22" value="&lt;span style=&quot;font-size: 15px&quot;&gt;针对单点问题，可以使用多个master节点，并且多个master节点之间数据独立，没有数据的同步&lt;/span&gt;" style="text;html=1;strokeColor=#d6b656;fillColor=#fff2cc;align=center;verticalAlign=middle;whiteSpace=wrap;rounded=0;dashed=1;strokeWidth=3;" vertex="1" parent="1">
          <mxGeometry x="91.5" y="714" width="331" height="61" as="geometry" />
        </mxCell>
        <mxCell id="4EUAKiG6uaYQuzAemKZB-31" style="edgeStyle=elbowEdgeStyle;rounded=0;orthogonalLoop=1;jettySize=auto;elbow=vertical;html=1;exitX=0.5;exitY=0;exitDx=0;exitDy=0;entryX=0.5;entryY=1;entryDx=0;entryDy=0;strokeWidth=1;" edge="1" parent="1" source="4EUAKiG6uaYQuzAemKZB-23" target="4EUAKiG6uaYQuzAemKZB-30">
          <mxGeometry relative="1" as="geometry" />
        </mxCell>
        <mxCell id="4EUAKiG6uaYQuzAemKZB-23" value="&lt;font style=&quot;vertical-align: inherit&quot;&gt;&lt;font style=&quot;vertical-align: inherit&quot;&gt;&lt;font style=&quot;vertical-align: inherit ; font-size: 15px&quot;&gt;&lt;font style=&quot;vertical-align: inherit ; font-size: 15px&quot;&gt;127.0.0.1:6379&lt;br&gt;master1&lt;br&gt;&lt;/font&gt;&lt;/font&gt;&lt;/font&gt;&lt;/font&gt;" style="rounded=1;whiteSpace=wrap;html=1;fillColor=#FF4912;" vertex="1" parent="1">
          <mxGeometry x="98" y="885" width="102" height="50" as="geometry" />
        </mxCell>
        <mxCell id="4EUAKiG6uaYQuzAemKZB-34" style="edgeStyle=elbowEdgeStyle;rounded=0;orthogonalLoop=1;jettySize=auto;elbow=vertical;html=1;exitX=0.5;exitY=0;exitDx=0;exitDy=0;entryX=0.5;entryY=1;entryDx=0;entryDy=0;strokeWidth=1;" edge="1" parent="1" source="4EUAKiG6uaYQuzAemKZB-24" target="4EUAKiG6uaYQuzAemKZB-30">
          <mxGeometry relative="1" as="geometry" />
        </mxCell>
        <mxCell id="4EUAKiG6uaYQuzAemKZB-24" value="&lt;font style=&quot;vertical-align: inherit&quot;&gt;&lt;font style=&quot;vertical-align: inherit&quot;&gt;&lt;font style=&quot;vertical-align: inherit ; font-size: 15px&quot;&gt;&lt;font style=&quot;vertical-align: inherit ; font-size: 15px&quot;&gt;127.0.0.2:6379&lt;br&gt;master2&lt;br&gt;&lt;/font&gt;&lt;/font&gt;&lt;/font&gt;&lt;/font&gt;" style="rounded=1;whiteSpace=wrap;html=1;fillColor=#FF4912;" vertex="1" parent="1">
          <mxGeometry x="236" y="885" width="102" height="50" as="geometry" />
        </mxCell>
        <mxCell id="4EUAKiG6uaYQuzAemKZB-33" style="edgeStyle=elbowEdgeStyle;rounded=0;orthogonalLoop=1;jettySize=auto;elbow=vertical;html=1;exitX=0.5;exitY=0;exitDx=0;exitDy=0;entryX=0.5;entryY=1;entryDx=0;entryDy=0;strokeWidth=1;" edge="1" parent="1" source="4EUAKiG6uaYQuzAemKZB-25" target="4EUAKiG6uaYQuzAemKZB-30">
          <mxGeometry relative="1" as="geometry" />
        </mxCell>
        <mxCell id="4EUAKiG6uaYQuzAemKZB-25" value="&lt;font style=&quot;vertical-align: inherit&quot;&gt;&lt;font style=&quot;vertical-align: inherit&quot;&gt;&lt;font style=&quot;vertical-align: inherit ; font-size: 15px&quot;&gt;&lt;font style=&quot;vertical-align: inherit ; font-size: 15px&quot;&gt;127.0.0.3:6379&lt;br&gt;master3&lt;br&gt;&lt;/font&gt;&lt;/font&gt;&lt;/font&gt;&lt;/font&gt;" style="rounded=1;whiteSpace=wrap;html=1;fillColor=#FF4912;" vertex="1" parent="1">
          <mxGeometry x="384" y="885" width="102" height="50" as="geometry" />
        </mxCell>
        <mxCell id="4EUAKiG6uaYQuzAemKZB-35" style="edgeStyle=elbowEdgeStyle;rounded=0;orthogonalLoop=1;jettySize=auto;elbow=vertical;html=1;exitX=0.5;exitY=0;exitDx=0;exitDy=0;entryX=0.5;entryY=1;entryDx=0;entryDy=0;strokeWidth=1;" edge="1" parent="1" source="4EUAKiG6uaYQuzAemKZB-26" target="4EUAKiG6uaYQuzAemKZB-30">
          <mxGeometry relative="1" as="geometry" />
        </mxCell>
        <mxCell id="4EUAKiG6uaYQuzAemKZB-26" value="&lt;font style=&quot;vertical-align: inherit&quot;&gt;&lt;font style=&quot;vertical-align: inherit&quot;&gt;&lt;font style=&quot;vertical-align: inherit ; font-size: 15px&quot;&gt;&lt;font style=&quot;vertical-align: inherit ; font-size: 15px&quot;&gt;127.0.0.4:6379&lt;br&gt;master4&lt;br&gt;&lt;/font&gt;&lt;/font&gt;&lt;/font&gt;&lt;/font&gt;" style="rounded=1;whiteSpace=wrap;html=1;fillColor=#FF4912;" vertex="1" parent="1">
          <mxGeometry x="523" y="885" width="102" height="50" as="geometry" />
        </mxCell>
        <mxCell id="4EUAKiG6uaYQuzAemKZB-32" style="edgeStyle=elbowEdgeStyle;rounded=0;orthogonalLoop=1;jettySize=auto;elbow=vertical;html=1;exitX=0.5;exitY=0;exitDx=0;exitDy=0;entryX=0.5;entryY=1;entryDx=0;entryDy=0;strokeWidth=1;" edge="1" parent="1" source="4EUAKiG6uaYQuzAemKZB-27" target="4EUAKiG6uaYQuzAemKZB-30">
          <mxGeometry relative="1" as="geometry" />
        </mxCell>
        <mxCell id="4EUAKiG6uaYQuzAemKZB-27" value="&lt;font style=&quot;vertical-align: inherit&quot;&gt;&lt;font style=&quot;vertical-align: inherit&quot;&gt;&lt;font style=&quot;vertical-align: inherit ; font-size: 15px&quot;&gt;&lt;font style=&quot;vertical-align: inherit ; font-size: 15px&quot;&gt;127.0.0.5:6379&lt;br&gt;master5&lt;br&gt;&lt;/font&gt;&lt;/font&gt;&lt;/font&gt;&lt;/font&gt;" style="rounded=1;whiteSpace=wrap;html=1;fillColor=#FF4912;" vertex="1" parent="1">
          <mxGeometry x="667" y="885" width="102" height="50" as="geometry" />
        </mxCell>
        <mxCell id="4EUAKiG6uaYQuzAemKZB-30" value="&lt;font style=&quot;vertical-align: inherit&quot;&gt;&lt;font style=&quot;vertical-align: inherit&quot;&gt;Client&lt;/font&gt;&lt;/font&gt;" style="rounded=0;whiteSpace=wrap;html=1;fillColor=#fff2cc;strokeColor=#d6b656;" vertex="1" parent="1">
          <mxGeometry x="393" y="790" width="84" height="46.5" as="geometry" />
        </mxCell>
        <mxCell id="4EUAKiG6uaYQuzAemKZB-36" value="&lt;font style=&quot;vertical-align: inherit&quot;&gt;&lt;font style=&quot;vertical-align: inherit&quot;&gt;&lt;font style=&quot;vertical-align: inherit&quot;&gt;&lt;font style=&quot;vertical-align: inherit&quot;&gt;&lt;font style=&quot;vertical-align: inherit&quot;&gt;&lt;font style=&quot;vertical-align: inherit&quot;&gt;&lt;font style=&quot;vertical-align: inherit&quot;&gt;&lt;font style=&quot;vertical-align: inherit ; font-size: 15px&quot;&gt;set product 100 nx&amp;nbsp;px 500&lt;/font&gt;&lt;/font&gt;&lt;/font&gt;&lt;/font&gt;&lt;/font&gt;&lt;/font&gt;&lt;/font&gt;&lt;/font&gt;" style="text;html=1;strokeColor=none;fillColor=none;align=center;verticalAlign=middle;whiteSpace=wrap;rounded=0;" vertex="1" parent="1">
          <mxGeometry x="450" y="795.75" width="278" height="35" as="geometry" />
        </mxCell>
        <mxCell id="4EUAKiG6uaYQuzAemKZB-37" value="1ms" style="text;html=1;strokeColor=none;fillColor=none;align=center;verticalAlign=middle;whiteSpace=wrap;rounded=0;dashed=1;" vertex="1" parent="1">
          <mxGeometry x="111" y="860" width="40" height="20" as="geometry" />
        </mxCell>
        <mxCell id="4EUAKiG6uaYQuzAemKZB-38" value="2ms" style="text;html=1;strokeColor=none;fillColor=none;align=center;verticalAlign=middle;whiteSpace=wrap;rounded=0;dashed=1;" vertex="1" parent="1">
          <mxGeometry x="251" y="865" width="40" height="20" as="geometry" />
        </mxCell>
        <mxCell id="4EUAKiG6uaYQuzAemKZB-39" value="3ms" style="text;html=1;strokeColor=none;fillColor=none;align=center;verticalAlign=middle;whiteSpace=wrap;rounded=0;dashed=1;" vertex="1" parent="1">
          <mxGeometry x="403" y="862" width="40" height="20" as="geometry" />
        </mxCell>
        <mxCell id="4EUAKiG6uaYQuzAemKZB-40" value="&lt;font style=&quot;font-size: 15px&quot;&gt;假设锁的过期时间是：500ms。&lt;br&gt;master1获取锁用时1ms。那么master1的锁的过期时间是500-1=499ms&lt;br&gt;master2获取锁用时2ms。那么master2的锁的过期时间是499-2=497ms&lt;br&gt;master3获取锁用时3ms。那么master3的锁的过期时间是497-4=494ms&lt;br&gt;5个master，只要获取N/2+1，即3个节点的锁成功之后就算完成了加锁。&lt;br&gt;&lt;br&gt;&lt;/font&gt;" style="text;html=1;strokeColor=#6c8ebf;fillColor=#dae8fc;align=left;verticalAlign=middle;whiteSpace=wrap;rounded=0;dashed=1;strokeWidth=2;" vertex="1" parent="1">
          <mxGeometry x="89" y="958" width="565" height="117" as="geometry" />
        </mxCell>
        <mxCell id="4EUAKiG6uaYQuzAemKZB-41" style="edgeStyle=elbowEdgeStyle;rounded=0;orthogonalLoop=1;jettySize=auto;elbow=vertical;html=1;exitX=0.5;exitY=1;exitDx=0;exitDy=0;strokeWidth=1;" edge="1" parent="1" source="4EUAKiG6uaYQuzAemKZB-40" target="4EUAKiG6uaYQuzAemKZB-40">
          <mxGeometry relative="1" as="geometry">
            <Array as="points">
              <mxPoint x="361" y="1072" />
            </Array>
          </mxGeometry>
        </mxCell>
      </root>
    </mxGraphModel>
  </diagram>
</mxfile>
